<svg xmlns="http://www.w3.org/2000/svg" viewBox="0 0 416.77 398.85"><defs><style>.cls-1{fill:none;}.cls-1,.cls-2{stroke:#000;stroke-miterlimit:10;}</style></defs><g id="Ebene_4" data-name="Ebene 4"><path d="M682,500.93A116.93,116.93,0,0,0,798.93,384c0-.77,0-1.53,0-2.3H785.47c0,.76,0,1.53,0,2.3a103.5,103.5,0,0,1-207,0c0-.77,0-1.54,0-2.3H565.09c0,.77,0,1.53,0,2.3A116.93,116.93,0,0,0,682,500.93ZM855.47,381.75a28.26,28.26,0,0,1-4.78-.05H817.64c0,.77,0,1.53,0,2.3a135.67,135.67,0,0,1-271.34,0c0-.77,0-1.53,0-2.3H512.13c-.85,0-1.71,0-2.56,0h-1c0,.77,0,1.53,0,2.3s0,1.5,0,2.25a28,28,0,0,1,9.61,54.89c.51,1.45,1,2.89,1.58,4.32a28,28,0,0,1,27.88,48.25q1.46,1.79,2.95,3.53a28,28,0,0,1,42.67,35.84c1.31.79,2.64,1.55,4,2.3a28,28,0,0,1,52.36,19.08c1.5.28,3,.55,4.53.79a28,28,0,0,1,55.72,0c1.52-.24,3-.51,4.54-.79a28,28,0,0,1,52.37-19.05c1.33-.75,2.66-1.51,4-2.3a28,28,0,0,1,42.69-35.82q1.5-1.74,3-3.52a28,28,0,0,1,27.91-48.23c.54-1.44,1.07-2.88,1.58-4.33a28,28,0,0,1,9.64-54.88c0-.78,0-1.57,0-2.35S855.48,382.5,855.47,381.75Z" transform="translate(-474.43 -157)"/><path class="cls-1" d="M682,500.93A116.93,116.93,0,0,0,798.93,384c0-.77,0-1.53,0-2.3H785.47c0,.76,0,1.53,0,2.3a103.5,103.5,0,0,1-207,0c0-.77,0-1.54,0-2.3H565.09c0,.77,0,1.53,0,2.3A116.93,116.93,0,0,0,682,500.93ZM855.47,381.75a28.26,28.26,0,0,1-4.78-.05H817.64c0,.77,0,1.53,0,2.3a135.67,135.67,0,0,1-271.34,0c0-.77,0-1.53,0-2.3H512.13c-.85,0-1.71,0-2.56,0h-1c0,.77,0,1.53,0,2.3s0,1.5,0,2.25a28,28,0,0,1,9.61,54.89c.51,1.45,1,2.89,1.58,4.32a28,28,0,0,1,27.88,48.25q1.46,1.79,2.95,3.53a28,28,0,0,1,42.67,35.84c1.31.79,2.64,1.55,4,2.3a28,28,0,0,1,52.36,19.08c1.5.28,3,.55,4.53.79a28,28,0,0,1,55.72,0c1.52-.24,3-.51,4.54-.79a28,28,0,0,1,52.37-19.05c1.33-.75,2.66-1.51,4-2.3a28,28,0,0,1,42.69-35.82q1.5-1.74,3-3.52a28,28,0,0,1,27.91-48.23c.54-1.44,1.07-2.88,1.58-4.33a28,28,0,0,1,9.64-54.88c0-.78,0-1.57,0-2.35S855.48,382.5,855.47,381.75Z" transform="translate(-474.43 -157)"/><rect class="cls-2" x="201.07" y="103.5" width="16" height="49"/><rect x="200.57" y="94" width="12" height="34"/><path d="M737.49,223h-107a6,6,0,0,0-6,6V237A6,6,0,0,0,630,243V229h1v14h17v-7h1v7h17v-7h1v7h16.5V229h1v14H702v-7h1v7h18v-7h1v7h15V229h1v14a6,6,0,0,0,5.46-5.94V229A6,6,0,0,0,737.49,223Z" transform="translate(-474.43 -157)"/><path d="M673.74,315.36h20.07q.23-9.81.46-19.61l.87-45.75H674.3Q674,282.69,673.74,315.36Zm8.44-63.5h1.64v13.3h-1.64Zm-12.26-60.28a20.06,20.06,0,0,1,3,6.14c0,.14.07.25.1.33a47.23,47.23,0,0,1,1.63,10.68l-.06,7.27h21.2l.11-5.63c0-.62,0-1.46,0-2.47a28.38,28.38,0,0,1,1.64-8.2c.82-2.33,1.27-2.66,3.27-6.57,2.24-4.41,3.37-6.61,4.08-9a23.51,23.51,0,0,0,.82-11.5,17.55,17.55,0,0,0-13.89-14.77,19.75,19.75,0,0,0-18.8,4.1,19.84,19.84,0,0,0-4.91,5.75,20.73,20.73,0,0,0-2.28,6.16,21.66,21.66,0,0,0,0,8A27.53,27.53,0,0,0,669.92,191.58Zm2.74-16.35,2.69-1.14-1.43-2.73,2.89-.31-.7-3.05,2.85.54.09-3.14,2.61,1.36.87-3,2.17,2.07,1.58-2.63,1.58,2.63,2.18-2.07.86,3,2.61-1.36.09,3.14,2.85-.54-.69,3.05,2.88.31-1.43,2.73,2.7,1.14-2.06,2.21,2.31,1.89-2.52,1.53,1.75,2.49-2.81.74,1.07,2.91-2.89-.11.3,3.12-2.75-1-.48,3.09-2.42-1.73-1.23,2.84-1.9-2.37-1.89,2.37-1.24-2.84-2.41,1.73-.48-3.09-2.76,1,.31-3.12-2.9.11,1.07-2.91-2.81-.74,1.76-2.49-2.53-1.53,2.31-1.89Zm38,261.73c-2.7-7.36-8.48-15-12.27-19.71a51.51,51.51,0,0,1-3.26-4.92c-2.52-4.26-3.08-6.49-3.27-8.21a14.17,14.17,0,0,1,0-3.29q.33-14.54.67-29.07H673.26L673,400a15.4,15.4,0,0,1,0,3.29,24.07,24.07,0,0,1-1.64,5.74c-1.1,3.14-.92,2.95-1.63,4.93a58.45,58.45,0,0,1-4.91,10.67c-3,4.95-4.05,4.27-7.35,9.85a27.3,27.3,0,0,0-3.27,7.39,26.43,26.43,0,0,0-.82,6.57,29.36,29.36,0,0,0,.82,7.39,28.91,28.91,0,0,0,2.45,6.57c2.08,4,4.6,6.38,7.35,9a39.73,39.73,0,0,0,4.91,4.1c1,.73,2,1.34,3,1.87a2.29,2.29,0,0,1-.09-.28l-4.92-24.32a4.64,4.64,0,0,1,3.24-5.5l24.25-5.78a4.27,4.27,0,0,1,5.07,3.52l4.92,24.32a4.75,4.75,0,0,1,.1,1c2.69-1.4,5.66-8,7-12.88A34.74,34.74,0,0,0,710.62,437Z" transform="translate(-474.43 -157)"/><path d="M517.18,323v39.32H506V334.24l-7.27,28.11H491l-7.57-28.11v28.11h-9V323H490.2l5.71,20.89L501.35,323Z" transform="translate(-474.43 -157)"/><path d="M549.91,362.35l-2.22-7.75H537.15l-2.36,7.75H525L537.13,323h12.76l12.34,39.32ZM539.2,346h6.37l-3.18-11.41Z" transform="translate(-474.43 -157)"/><path d="M605.5,362.35H592.29l-6.79-14.86-4.08,5.79v9.07H570V323h11.38v16.26L592.26,323h10.85l-9.93,14.39Z" transform="translate(-474.43 -157)"/><path d="M642.5,353v9.39H612.92V323H642.5v9.07H624.76v5.71H639.1v8.73H624.76V353Z" transform="translate(-474.43 -157)"/><path d="M686.48,362.35H673.1l-5.75-15h-3.8v15H651.48V323H672q6.79,0,10.55,3.18a10.45,10.45,0,0,1,3.76,8.4,12.66,12.66,0,0,1-1.38,6c-.92,1.73-2.78,3.27-5.59,4.59ZM663.55,338.9h5.15a6.29,6.29,0,0,0,3.66-.95,3.16,3.16,0,0,0,1.38-2.79q0-3.78-4.63-3.78h-5.56Z" transform="translate(-474.43 -157)"/><path d="M729.73,323v39.32H717.66V347.06h-9.22v15.29H696.37V323h12.07v14.46h9.22V323Z" transform="translate(-474.43 -157)"/><path d="M762.43,362.35l-2.22-7.75H749.67l-2.36,7.75h-9.8L749.65,323h12.77l12.33,39.32ZM751.73,346h6.36l-3.18-11.41Z" transform="translate(-474.43 -157)"/><path d="M807.13,347.63H794.31v14.72H782.56V323H811v9.36H794.31v6.4h12.82Z" transform="translate(-474.43 -157)"/><path d="M848.6,353v9.39H819V323H848.6v9.07H830.86v5.71H845.2v8.73H830.86V353Z" transform="translate(-474.43 -157)"/><path d="M891.19,362.35h-9.82L870.6,345a66.42,66.42,0,0,1-4.18-8.12,27.48,27.48,0,0,1,1,6.45v19h-9.8V323H869l9.16,14.4a54.92,54.92,0,0,1,4.15,7.55,57.63,57.63,0,0,1-.92-10.31V323h9.82Z" transform="translate(-474.43 -157)"/></g></svg>